<?xml version="1.0" standalone="no"?><!DOCTYPE svg PUBLIC "-//W3C//DTD SVG 1.1//EN" "http://www.w3.org/Graphics/SVG/1.1/DTD/svg11.dtd"><svg t="1572967828467" class="icon" viewBox="0 0 1024 1024" version="1.1" xmlns="http://www.w3.org/2000/svg" p-id="4121" xmlns:xlink="http://www.w3.org/1999/xlink" width="120" height="120"><defs><style type="text/css"></style></defs><path d="M137.561709 562.755789a422.366393 369.04638 90 1 0 738.09276 0 422.366393 369.04638 90 1 0-738.09276 0Z" fill="#B9DFF6" p-id="4122"></path><path d="M845.100304 562.755789c0 11.982025-0.399401 23.76435-1.198203 35.746376-0.399401 5.791312-0.998502 11.782325-1.597603 17.573637-0.399401 2.995506-0.599101 5.791312-0.998502 8.786819 0.798802-6.390414-0.798802 5.192211-0.998502 6.190713-3.594608 23.364949-9.186219 46.530198-16.375435 69.096346-3.394907 10.584122-7.189215 20.968544-11.382924 31.352966-0.1997 0.599101-3.794308 8.986519-1.198202 2.795806-0.998502 2.596105-2.196705 4.992511-3.394908 7.588616-2.596105 5.791312-5.391911 11.582624-8.187717 17.174236-9.985021 19.970042-21.767346 39.141283-34.747873 57.314021-1.597603 2.196705-3.195207 4.193709-4.79281 6.390414-5.192211 6.989515 3.794308-4.79281-1.597604 2.196705-3.195207 4.193709-6.590114 8.187717-9.985021 12.181725-7.388916 8.587118-14.977532 16.774835-23.165249 24.762853-7.388916 7.189215-14.977532 14.17873-22.965548 20.768844l-5.991013 4.79281c-0.798802 0.599101-7.588616 5.791312-1.797304 1.597603-4.79281 3.594608-9.58562 6.989515-14.37843 10.384422-17.373937 11.982025-35.946076 22.166747-55.117317 30.953565-0.998502 0.399401-8.786819 3.794308-1.997004 0.998503-2.396405 0.998502-4.59311 1.797304-6.989515 2.795805-4.79281 1.797304-9.38592 3.594608-14.17873 5.192211-10.384422 3.594608-20.968544 6.390414-31.752367 8.786819-4.992511 1.198203-9.985021 2.196705-14.977531 2.995506-2.596105 0.399401-4.992511 0.798802-7.588616 1.198203-8.587118 1.397903 6.590114-0.798802-1.997005 0.1997-11.183224 1.397903-22.366447 1.997004-33.549671 2.196705-10.384422 0.1997-20.768844-0.1997-31.352966-0.998502-5.192211-0.399401-10.184722-0.998502-15.376932-1.597604 7.588616 0.998502-0.798802-0.1997-1.997005-0.3994-3.394907-0.599101-6.789814-1.198203-9.985021-1.797304-20.768844-3.994008-41.138287-10.184722-60.708928-17.973038-7.788316-3.195207 5.791312 2.596105-1.997004-0.798802-2.396405-0.998502-4.59311-1.997004-6.989515-3.195207-4.59311-2.196705-9.186219-4.393409-13.579629-6.590114-9.785321-4.992511-19.171241-10.584122-28.55716-16.575135-4.193709-2.795806-8.387418-5.591612-12.581127-8.587118-1.997004-1.397903-4.193709-2.995506-6.190713-4.393409-0.798802-0.599101-7.588616-5.791312-1.997004-1.397903-8.786819-6.789814-17.174236-14.17873-25.361954-21.767346-7.588616-6.989515-14.777831-14.578131-21.967046-22.166747-3.594608-3.794308-6.989515-7.788316-10.384422-11.782325-1.797304-1.997004-3.394907-3.994008-4.99251-5.991012-0.798802-0.998502-7.588616-9.58562-3.394908-4.193709-13.579629-17.773338-25.561654-36.545177-36.145776-56.115819-5.192211-9.58562-9.985021-19.370941-14.37843-29.355962-0.1997-0.599101-3.794308-8.986519-1.198203-2.795806-0.998502-2.596105-1.997004-5.192211-3.195207-7.588616-2.396405-5.991013-4.59311-12.181726-6.789814-18.172738-7.788316-22.166747-13.579629-45.132295-17.973038-68.297545-0.998502-5.591612-1.997004-11.382924-2.795806-17.174236-1.397903-9.38592 0.798802 6.190713-0.399401-3.394907-0.399401-2.995506-0.599101-5.791312-0.998502-8.786819-1.397903-12.780827-1.997004-25.561654-2.396405-38.342481-0.599101-24.762852 0.798802-49.326004 3.794308-73.889156-0.798802 6.590114 0.399401-2.795806 0.599101-3.394907 0.399401-2.795806 0.998502-5.791312 1.397903-8.587118 0.998502-5.591612 1.997004-11.382924 3.195207-16.974536 2.396405-11.982025 5.591612-23.964051 8.986519-35.746376 3.195207-10.783823 6.789814-21.367945 10.584122-31.752367 1.997004-5.192211 3.994008-10.384422 6.190713-15.376932-2.596105 6.190713 0.998502-2.196705 1.198203-2.795806 1.397903-3.394907 2.995506-6.590114 4.59311-9.985021 9.58562-20.369443 20.968544-39.740384 33.549671-58.312523 2.995506-4.393409 5.991013-8.786819 9.186219-12.980528 0.399401-0.599101 5.791312-7.588616 1.597603-2.196705 1.597603-1.997004 3.195207-4.193709 4.992511-6.190713 7.189215-8.786819 14.578131-17.174236 22.566148-25.361953 7.189215-7.388916 14.578131-14.578131 22.366447-21.367945 3.794308-3.394907 7.788316-6.789814 11.782325-9.985022l5.991013-4.79281c-5.591612 4.393409 2.995506-2.196705 3.994008-2.995506 16.974536-12.381426 35.346975-23.364949 54.318515-32.551169 4.59311-2.196705 9.186219-4.193709 13.779329-6.190713-6.789814 2.995506 0.998502-0.399401 1.997004-0.798802 2.396405-0.998502 4.79281-1.797304 6.989515-2.596105 10.184722-3.794308 20.768844-6.989515 31.352966-9.785321 9.785321-2.596105 19.770342-4.59311 29.955063-6.190713 1.198203-0.1997 9.58562-1.397903 1.997005-0.399401 2.596105-0.399401 5.192211-0.599101 7.588616-0.798801 5.991013-0.599101 11.982025-0.998502 17.973038-1.397903 10.384422-0.599101 20.968544-0.399401 31.352966 0 5.192211 0.1997 10.384422 0.599101 15.576633 1.198202 2.596105 0.1997 5.192211 0.599101 7.588616 0.798802 3.594608 0.399401 3.394907 0.399401-0.399401 0 1.597603 0.1997 3.394907 0.599101 4.992511 0.798802 20.968544 3.195207 41.337987 8.786819 61.308029 15.976033 2.396405 0.798802 4.79281 1.797304 6.989515 2.596106 0.998502 0.399401 8.786819 3.594608 1.997004 0.798802 4.59311 1.997004 9.186219 4.193709 13.779329 6.190713 9.985021 4.79281 19.570641 9.985021 28.956562 15.576633 8.786819 5.192211 17.174236 10.983523 25.361953 16.774835 1.997004 1.397903 4.193709 2.995506 6.190713 4.59311-5.591612-4.193709 1.198203 0.998502 1.797304 1.597603 4.59311 3.794308 9.186219 7.588616 13.779329 11.582625 16.375435 14.37843 31.153266 30.154764 44.932595 46.929599 1.597603 1.997004 3.195207 4.193709 4.992511 6.190713-4.193709-5.391911 1.198203 1.597603 1.597603 2.196704 3.794308 4.992511 7.189215 9.985021 10.783823 15.177233 6.989515 10.384422 13.579629 21.168245 19.570641 31.952067 5.791312 10.384422 10.983523 20.768844 15.776333 31.552667 1.198203 2.396405 2.196705 4.992511 3.394908 7.588616-2.596105-5.991013 1.797304 4.393409 2.196704 5.391911 2.396405 5.991013 4.59311 12.181726 6.789815 18.172739 8.387418 23.964051 14.578131 48.926603 18.97154 73.889156 0.399401 2.795806 0.998502 5.791312 1.397903 8.587118 0 0.599101 1.397903 9.985021 0.599101 3.394907 0.798802 6.789814 1.597603 13.579629 2.196705 20.369443 0.998502 13.97903 1.397903 27.758359 1.597603 41.737388 0 16.575135 13.779329 30.554165 30.554165 30.554165 16.575135 0 30.554165-13.779329 30.554164-30.554165-0.1997-97.254106-27.558658-194.707912-82.476274-275.586582-51.323008-75.48676-125.212165-134.398384-212.88065-161.757342-87.668485-27.358958-182.925587-17.174236-264.80276 22.566148-81.078371 39.540684-145.981009 110.234633-186.320494 190.114802-88.866688 176.335473-63.704435 401.99695 68.696946 549.775261 60.708928 67.898144 143.984004 112.830738 234.248595 124.812764 88.467287 11.582624 179.73038-12.581127 252.621034-63.704434 124.213663-87.069384 190.314502-236.844701 190.913603-386.220617 0-16.575135-13.97903-30.554165-30.554164-30.554164-16.774835 0-30.554165 13.779329-30.554165 30.554164z" fill="" p-id="4123"></path><path d="M628.824747 289.565612m-37.343979 0a37.343979 37.343979 0 1 0 74.687958 0 37.343979 37.343979 0 1 0-74.687958 0Z" fill="" p-id="4124"></path><path d="M422.33451 284.573101m-37.343978 0a37.343979 37.343979 0 1 0 74.687957 0 37.343979 37.343979 0 1 0-74.687957 0Z" fill="" p-id="4125"></path><path d="M15.34505 431.552612c39.940084 28.756861 79.880169 57.713422 120.019954 86.470283 6.789814 4.79281 16.974536 1.198203 20.768844-5.391912 4.59311-7.588616 1.198203-15.976034-5.391912-20.768843-39.940084-28.756861-79.880169-57.713422-120.019953-86.470283-6.789814-4.79281-16.974536-1.198203-20.768844 5.391911-4.59311 7.588616-1.397903 15.976034 5.391911 20.768844zM300.317553 44.932595L360.227679 173.739367c6.789814 14.37843 27.159257 17.973038 39.740384 10.384422 14.578131-8.587118 17.174236-25.361954 10.384422-39.740384l-59.910126-128.806772c-6.789814-14.37843-27.159257-17.973038-39.740384-10.384422-14.578131 8.587118-17.174236 25.361954-10.384422 39.740384zM682.54416 16.974536L622.034933 151.772321c-6.789814 15.177232-4.59311 32.750869 10.983523 41.737388 13.180228 7.788316 34.947574 4.193709 41.737388-10.983523l60.509228-134.797785c6.789814-15.177232 4.59311-32.750869-10.983523-41.737388-13.180228-7.588616-34.947574-4.193709-41.737389 10.983523zM56.283637 861.10822C92.629114 824.762743 129.174291 788.417266 165.519768 752.071789c13.97903-13.97903-7.588616-35.546675-21.567646-21.567645C107.606645 766.849621 71.261169 803.195098 34.715991 839.540574c-13.779329 13.97903 7.788316 35.546675 21.567646 21.567646zM188.884717 1019.470655l109.036431-109.036431c13.97903-13.97903-7.588616-35.546675-21.567646-21.567645l-109.03643 109.03643c-13.779329 13.97903 7.788316 35.546675 21.567645 21.567646zM994.076819 405.591557c-42.136789 25.761354-84.073878 51.323008-126.210667 77.084363-16.774835 10.184722-1.397903 36.545177 15.376933 26.360456 42.136789-25.761354 84.073878-51.323008 126.210666-77.084363 16.774835-10.184722 1.397903-36.545177-15.376932-26.360456zM988.884608 839.540574l-109.036431-109.03643c-13.97903-13.97903-35.546675 7.588616-21.567645 21.567645l109.03643 109.036431c13.97903 13.97903 35.546675-7.588616 21.567646-21.567646zM856.283528 997.903009l-109.036431-109.03643c-13.97903-13.97903-35.546675 7.588616-21.567645 21.567645l109.03643 109.036431c13.97903 13.97903 35.546675-7.588616 21.567646-21.567646zM212.249666 326.51019c21.168245 24.163751 46.530198 44.932595 71.892152 64.103836 53.320013 40.139785 114.827743 71.293051 180.529182 84.273578 57.314021 11.382924 116.425346 7.388916 171.542663-11.782325 73.090354-25.561654 134.797785-75.48676 185.721392-132.40138 12.980527-14.578131-8.387418-36.145776-21.567646-21.567646-65.701439 73.290055-150.574118 134.398384-251.622531 141.188199-71.293051 4.79281-140.788798-18.172738-201.697427-54.118815-41.937089-24.762852-80.678971-54.118814-113.230139-91.263093-12.980527-14.977532-34.348473 6.789814-21.567646 21.567646z" fill="" p-id="4126"></path><path d="M532.369443 980.928473V712.730806c0-19.570641-30.554165-19.570641-30.554165 0v268.197667c0 19.570641 30.554165 19.570641 30.554165 0z" fill="" p-id="4127"></path></svg>