<svg width="2773" height="1024" xmlns="http://www.w3.org/2000/svg" class="icon">
 <defs>
  <style type="text/css"/>
 </defs>
 <g>
  <title>background</title>
  <rect fill="none" id="canvas_background" height="402" width="582" y="-1" x="-1"/>
 </g>
 <g>
  <title>Layer 1</title>
  <path id="svg_2" fill="#000000" d="m430.336,510.03733a63.744,63.744 0 1 0 127.53067,0a63.744,63.744 0 0 0 -127.53067,0zm199.25333,0a103.59467,103.59467 0 1 0 207.18934,0a103.59467,103.59467 0 0 0 -207.18934,0zm278.912,0a63.744,63.744 0 1 0 127.53067,0a63.744,63.744 0 0 0 -127.53067,0zm470.18667,-216.74666l15.95733,0l0,435.11466l-15.95733,0l0,-435.11466zm686.93333,-54.18667a270.72,270.72 0 0 0 -270.93333,270.93333c0,149.84534 121.17333,270.93334 270.93333,270.93334c149.84534,0 270.976,-121.088 270.976,-270.93334c0,-149.80266 -121.13066,-270.93333 -270.93333,-270.93333l-0.04267,0zm0,478.12267a206.80533,206.80533 0 0 1 -207.18933,-207.18934a206.80533,206.80533 0 0 1 207.232,-207.18933a206.80533,206.80533 0 0 1 207.18933,207.18933a206.80533,206.80533 0 0 1 -207.18933,207.18934l-0.04267,0z"/>
  <path id="svg_3" fill="#000000" d="m1962.06933,510.03733a103.59467,103.59467 0 1 0 207.18934,0a103.59467,103.59467 0 0 0 -207.18934,0z"/>
  <path id="svg_4" fill="#000000" d="m430.336,510.03733a63.744,63.744 0 1 0 127.53067,0a63.744,63.744 0 0 0 -127.53067,0zm199.25333,0a103.59467,103.59467 0 1 0 207.18934,0a103.59467,103.59467 0 0 0 -207.18934,0zm278.912,0a63.744,63.744 0 1 0 127.53067,0a63.744,63.744 0 0 0 -127.53067,0zm470.18667,-216.74666l15.95733,0l0,435.11466l-15.95733,0l0,-435.11466zm686.93333,-54.18667a270.72,270.72 0 0 0 -270.93333,270.93333c0,149.84534 121.17333,270.93334 270.93333,270.93334c149.84534,0 270.976,-121.088 270.976,-270.93334c0,-149.80266 -121.13066,-270.93333 -270.93333,-270.93333l-0.04267,0zm0,478.12267a206.80533,206.80533 0 0 1 -207.18933,-207.18934a206.80533,206.80533 0 0 1 207.232,-207.18933a206.80533,206.80533 0 0 1 207.18933,207.18933a206.80533,206.80533 0 0 1 -207.18933,207.18934l-0.04267,0z"/>
  <path id="svg_5" fill="#000000" d="m1962.06933,510.03733a103.59467,103.59467 0 1 0 207.18934,0a103.59467,103.59467 0 0 0 -207.18934,0z"/>
 </g>
</svg>